<svg xmlns="http://www.w3.org/2000/svg" viewBox="0 0 240 300" width="240" height="300" aria-label="StudyPuff sheep mascot">
  <defs>
    
  </defs>

  
  
  <path d="&#xA;    M 60 215&#xA;    Q 38 200 48 178&#xA;    Q 35 155 60 148&#xA;    Q 70 130 92 138&#xA;    L 148 138&#xA;    Q 170 130 180 148&#xA;    Q 205 155 192 178&#xA;    Q 202 200 180 215&#xA;    Q 200 240 175 252&#xA;    Q 188 275 158 270&#xA;    Q 145 282 128 278&#xA;    Q 110 282 95 274&#xA;    Q 80 282 65 270&#xA;    Q 40 275 53 252&#xA;    Q 28 240 60 215 Z" class="wool"></path>
  <path d="&#xA;    M 60 215&#xA;    Q 38 200 48 178&#xA;    Q 35 155 60 148&#xA;    Q 70 130 92 138&#xA;    L 148 138&#xA;    Q 170 130 180 148&#xA;    Q 205 155 192 178&#xA;    Q 202 200 180 215&#xA;    Q 200 240 175 252&#xA;    Q 188 275 158 270&#xA;    Q 145 282 128 278&#xA;    Q 110 282 95 274&#xA;    Q 80 282 65 270&#xA;    Q 40 275 53 252&#xA;    Q 28 240 60 215 Z" class="ink"></path>

  
  <ellipse cx="120" cy="195" rx="44" ry="34" class="face"></ellipse>

  
  
  <path d="M 60 188 L 120 178 L 180 188 L 178 250 L 120 258 L 62 250 Z" class="book"></path>
  <path d="M 60 188 L 120 178 L 180 188 L 178 250 L 120 258 L 62 250 Z" class="ink"></path>
  
  <path d="M 70 192 L 120 184 L 170 192 L 168 246 L 120 252 L 72 246 Z" class="pages"></path>
  <path d="M 70 192 L 120 184 L 170 192 L 168 246 L 120 252 L 72 246 Z" class="ink"></path>
  
  <line x1="120" y1="184" x2="120" y2="252" stroke="#5b8159" stroke-width="3.5" stroke-linecap="round"></line>
  
  <path d="M 84 205 Q 100 202 116 205 M 84 218 Q 100 215 114 218 M 84 230 Q 100 227 116 230" class="ink" stroke-width="1.5" opacity=".35"></path>
  <path d="M 124 205 Q 140 202 156 205 M 126 218 Q 140 215 156 218 M 124 230 Q 140 227 156 230" class="ink" stroke-width="1.5" opacity=".35"></path>

  
  <ellipse cx="58" cy="220" rx="11" ry="11" class="green"></ellipse>
  <ellipse cx="182" cy="220" rx="11" ry="11" class="green"></ellipse>

  
  <ellipse cx="80" cy="282" rx="14" ry="9" class="green"></ellipse>
  <ellipse cx="160" cy="282" rx="14" ry="9" class="green"></ellipse>

  
  <path d="M 52 78 Q 32 90 40 122 Q 50 132 62 122 Q 72 102 70 80 Z" class="face"></path>
  <path d="M 52 78 Q 32 90 40 122 Q 50 132 62 122 Q 72 102 70 80 Z" class="ink"></path>

  <path d="M 188 78 Q 208 90 200 122 Q 190 132 178 122 Q 168 102 170 80 Z" class="face"></path>
  <path d="M 188 78 Q 208 90 200 122 Q 190 132 178 122 Q 168 102 170 80 Z" class="ink"></path>

  
  <path d="&#xA;    M 40 80&#xA;    Q 28 60 50 50&#xA;    Q 50 28 78 36&#xA;    Q 86 16 110 22&#xA;    Q 130 16 145 36&#xA;    Q 170 30 175 55&#xA;    Q 200 65 188 88&#xA;    Q 200 102 180 108&#xA;    L 60 108&#xA;    Q 38 100 40 80 Z" class="wool"></path>
  <path d="&#xA;    M 40 80&#xA;    Q 28 60 50 50&#xA;    Q 50 28 78 36&#xA;    Q 86 16 110 22&#xA;    Q 130 16 145 36&#xA;    Q 170 30 175 55&#xA;    Q 200 65 188 88&#xA;    Q 200 102 180 108&#xA;    L 60 108&#xA;    Q 38 100 40 80 Z" class="ink"></path>

  
  <path d="&#xA;    M 60 100&#xA;    Q 55 130 80 152&#xA;    Q 100 165 120 165&#xA;    Q 140 165 160 152&#xA;    Q 185 130 180 100&#xA;    Q 175 90 160 92&#xA;    L 80 92&#xA;    Q 65 90 60 100 Z" class="face"></path>
  <path d="&#xA;    M 60 100&#xA;    Q 55 130 80 152&#xA;    Q 100 165 120 165&#xA;    Q 140 165 160 152&#xA;    Q 185 130 180 100" class="ink"></path>

  
  <ellipse cx="92" cy="120" rx="6.5" ry="9" class="green"></ellipse>
  <ellipse cx="148" cy="120" rx="6.5" ry="9" class="green"></ellipse>
  
  <ellipse cx="90" cy="115" rx="1.8" ry="2.6" fill="#ffffff"></ellipse>
  <ellipse cx="146" cy="115" rx="1.8" ry="2.6" fill="#ffffff"></ellipse>

  
  <ellipse cx="74" cy="138" rx="7" ry="5" class="blush"></ellipse>
  <ellipse cx="166" cy="138" rx="7" ry="5" class="blush"></ellipse>

  
  
  <path d="M 120 138 L 120 144" class="ink" stroke-width="3"></path>
  
  <path d="M 120 144 Q 113 152 106 148" class="ink" stroke-width="3" fill="none"></path>
  <path d="M 120 144 Q 127 152 134 148" class="ink" stroke-width="3" fill="none"></path>
</svg>