<svg xmlns="http://www.w3.org/2000/svg" viewBox="0 0 320 100" width="320" height="100" aria-label="StudyPuff logo">
  <!-- Sheep mark -->
  <g transform="translate(8, 14)">
    <g fill="#fffaf1" stroke="#1f1c18" stroke-width="2.6">
      <circle cx="22" cy="48" r="14"/>
      <circle cx="38" cy="36" r="17"/>
      <circle cx="58" cy="34" r="19"/>
      <circle cx="76" cy="42" r="15"/>
      <ellipse cx="50" cy="50" rx="28" ry="16"/>
    </g>
    <ellipse cx="32" cy="44" rx="11" ry="13" fill="#1f1c18"/>
    <ellipse cx="24" cy="32" rx="3.5" ry="6" fill="#1f1c18" transform="rotate(-22 24 32)"/>
    <ellipse cx="40" cy="30" rx="3.5" ry="6" fill="#1f1c18" transform="rotate(20 40 30)"/>
    <circle cx="29" cy="42" r="1.6" fill="#fbf7f0"/>
    <circle cx="35" cy="42" r="1.6" fill="#fbf7f0"/>
    <ellipse cx="32" cy="50" rx="1.4" ry="1" fill="#fbf7f0"/>
    <circle cx="22" cy="50" r="1.6" fill="#f3c6c2" opacity=".85"/>
    <circle cx="42" cy="50" r="1.6" fill="#f3c6c2" opacity=".85"/>
    <rect x="22" y="64" width="6" height="14" rx="3" fill="#1f1c18"/>
    <rect x="56" y="64" width="6" height="14" rx="3" fill="#1f1c18"/>
  </g>
  <!-- Wordmark -->
  <text x="106" y="64" font-family="Fraunces, Georgia, serif" font-size="42" font-weight="500" fill="#1f1c18" letter-spacing="-1">StudyPuff</text>
</svg>
